<svg xmlns="http://www.w3.org/2000/svg" viewBox="0 0 215.96 71.99"><defs><style>.cls-1{fill:#fcee2c;}</style></defs><title>guff_logo_yellow</title><g id="background"><rect class="cls-1" width="215.96" height="71.99"/></g><g id="text_bottom"><path d="M125.71,10.39l-1.79,16.84h9.14l.57-5.17h10.65l1.24-11.67ZM123.58,30.2,120.3,61h9.16l2.11-19.83h9a1.91,1.91,0,0,0,1.07-1.26l.92-8.42.14-1.3Z"/><path d="M151.66,10.39l-1.79,16.84H159l.57-5.17h10.65l1.24-11.67ZM149.53,30.2,146.25,61h9.16l2.11-19.83h9a1.91,1.91,0,0,0,1.07-1.26l.92-8.42.14-1.3Z"/></g><g id="dumbbell"><path d="M180.14,10c1.7,0,4.88,8.92,4.88,26s-3.18,26-4.88,26-4.88-9.17-4.88-26V35H40.83v1c0,17.06-3.18,26-4.88,26s-4.88-9.17-4.88-26S34.3,10,36,10c1,0,3.57,4.3,4.54,17.06l.08.92h135l.07-.92c1-12.76,3.53-17.06,4.54-17.06m0-1c-2.55,0-4.73,7.5-5.54,18H41.49c-.8-10.48-3-18-5.54-18-3.24,0-5.88,12.08-5.88,27S32.71,63,36,63s5.88-12.08,5.88-27H174.26c0,14.9,2.64,27,5.88,27S186,50.9,186,36s-2.63-27-5.88-27Z"/><path d="M36,63H27V9H36c-1.79,0-3.39,3.68-4.47,9.48A98.87,98.87,0,0,0,30.07,36a98.87,98.87,0,0,0,1.41,17.5C32.56,59.3,34.16,63,36,63Z"/><path d="M189.08,9V63h-8.94c1.79,0,3.39-3.67,4.47-9.46A99,99,0,0,0,186,36a99,99,0,0,0-1.41-17.52C183.53,12.69,181.93,9,180.14,9Z"/><path d="M30.07,36a98.87,98.87,0,0,0,1.41,17.5C30.41,59.3,28.8,63,27,63c-3.24,0-5.88-12.08-5.88-27S23.77,9,27,9c1.79,0,3.4,3.68,4.47,9.48A98.87,98.87,0,0,0,30.07,36Z"/><path d="M195,36c0,14.9-2.63,27-5.88,27-1.79,0-3.39-3.67-4.47-9.46A99,99,0,0,0,186,36a99,99,0,0,0-1.41-17.52c1.08-5.79,2.68-9.46,4.47-9.46C192.33,9,195,21.1,195,36Z"/><rect x="36" y="27" width="6.35" height="1" rx="0.18"/><rect x="36" y="35" width="6.35" height="0.99" rx="0.18"/><rect x="173.64" y="27" width="6.35" height="1" rx="0.18"/><rect x="173.64" y="35" width="6.35" height="0.99" rx="0.18"/></g><g id="text_top"><path d="M64.8,34.73l16.38,0a.42.42,0,0,1,.42.44c-.16,8.8-1.15,14.4-4.31,19.45q-4.49,7.17-12,7.68A16.39,16.39,0,0,1,50.5,54.65q-4-6.36-4-16.46A43.94,43.94,0,0,1,48,26.64,32,32,0,0,1,52.21,17a18.76,18.76,0,0,1,6.21-6A15.37,15.37,0,0,1,66.21,9a13.38,13.38,0,0,1,8.59,2.92,23,23,0,0,1,6.25,8.69.45.45,0,0,1-.08.48l-6.65,6.73a.42.42,0,0,1-.69-.15,12,12,0,0,0-3-4.53,6.46,6.46,0,0,0-4.46-1.7c-2.87,0-5.25,1.54-7.12,4.62a22.16,22.16,0,0,0-2.81,11.67q0,5.84,2.23,9.36a6.7,6.7,0,0,0,5.87,3.52A6.9,6.9,0,0,0,67,50.15a7.42,7.42,0,0,0,2.23-1.37,7.13,7.13,0,0,0,1.57-2.1,11.71,11.71,0,0,0,.92-2.43.43.43,0,0,0-.41-.54H64l.37-8.58A.42.42,0,0,1,64.8,34.73Z"/><path d="M89.46,29.17h9.21L95.93,45.43c-.22,1.23-.37,2.2-.45,2.9a16.57,16.57,0,0,0-.12,1.85,4.2,4.2,0,0,0,1.25,3.24,4.83,4.83,0,0,0,3.46,1.16q5.3,0,7.52-13.31l0-.31,2-11.79h9.2l-3.06,18.38v0c-.67,4-1.52,6.8-2.53,8.45a12.34,12.34,0,0,1-5.42,4.82,19.08,19.08,0,0,1-8.26,1.66q-6.14,0-9.83-2.77A8.76,8.76,0,0,1,86,52.35a31.09,31.09,0,0,1,.28-3.67q.28-2.31.84-5.71Z"/><polygon points="81.58 36 64.34 36 64.34 32.37 81.71 32.37 81.58 36"/><path d="M64.38,32.37V36l-.33,7.64A35.83,35.83,0,0,1,62.25,36h1A7.4,7.4,0,0,0,64.38,32.37Z"/><path d="M89.58,29.16,88.42,36l-.74,4.39A14.71,14.71,0,0,1,86.56,36h.18C87.76,35.88,88.68,33,89.58,29.16Z"/><path d="M109.7,29.16,108.54,36l-.74,4.39A14.71,14.71,0,0,1,106.68,36h.18C107.88,35.88,108.8,33,109.7,29.16Z"/><path d="M123.46,31.5,120.32,61l0,.17h9.16l2.11-19.83h8.22a1.84,1.84,0,0,0,.77-.17,1.91,1.91,0,0,0,1.07-1.26,2,2,0,0,0,.05-.26l.89-8.16Z"/><path d="M123.62,31.43l-.48,4.5-.41,3.69a8,8,0,0,1-1.6-3.69h1C122.79,35.82,123.26,34.12,123.62,31.43Z"/><path d="M149.41,31.5,146.27,61l0,.17h9.16l2.11-19.83h8.22a1.84,1.84,0,0,0,.77-.17,1.91,1.91,0,0,0,1.07-1.26,2,2,0,0,0,0-.26l.89-8.16Z"/><path d="M149.57,31.43l-.48,4.5-.41,3.69a8,8,0,0,1-1.6-3.69h1C148.74,35.82,149.21,34.12,149.57,31.43Z"/></g></svg>